<svg width="34" height="34" viewBox="0 0 34 34" fill="none" xmlns="http://www.w3.org/2000/svg">
<rect x="0.5" y="0.5" width="33" height="33" rx="16.5" fill="white"/>
<rect x="0.5" y="0.5" width="33" height="33" rx="16.5" stroke="#F3F3F3"/>
<g clip-path="url(#clip0_1_27)">
<mask id="mask0_1_27" style="mask-type:luminance" maskUnits="userSpaceOnUse" x="9" y="9" width="16" height="16">
<path d="M25 9H9V25H25V9Z" fill="white"/>
</mask>
<g mask="url(#mask0_1_27)">
<path d="M11 20C10.7267 20 10.5 19.7733 10.5 19.5V14.5C10.5 14.2267 10.7267 14 11 14C11.2733 14 11.5 14.2267 11.5 14.5V19.5C11.5 19.7733 11.2733 20 11 20Z" fill="#474747"/>
<path d="M14 21.6666C13.7267 21.6666 13.5 21.44 13.5 21.1666V12.8333C13.5 12.56 13.7267 12.3333 14 12.3333C14.2733 12.3333 14.5 12.56 14.5 12.8333V21.1666C14.5 21.44 14.2733 21.6666 14 21.6666Z" fill="#474747"/>
<path d="M17 23.3334C16.7267 23.3334 16.5 23.1067 16.5 22.8334V11.1667C16.5 10.8934 16.7267 10.6667 17 10.6667C17.2733 10.6667 17.5 10.8934 17.5 11.1667V22.8334C17.5 23.1067 17.2733 23.3334 17 23.3334Z" fill="#474747"/>
<path d="M20 21.6666C19.7267 21.6666 19.5 21.44 19.5 21.1666V12.8333C19.5 12.56 19.7267 12.3333 20 12.3333C20.2733 12.3333 20.5 12.56 20.5 12.8333V21.1666C20.5 21.44 20.2733 21.6666 20 21.6666Z" fill="#474747"/>
<path d="M23 20C22.7267 20 22.5 19.7733 22.5 19.5V14.5C22.5 14.2267 22.7267 14 23 14C23.2733 14 23.5 14.2267 23.5 14.5V19.5C23.5 19.7733 23.2733 20 23 20Z" fill="#474747"/>
</g>
</g>
<defs>
<clipPath id="clip0_1_27">
<rect width="16" height="16" fill="white" transform="translate(9 9)"/>
</clipPath>
</defs>
</svg>
