<svg width="37" height="39" viewBox="0 0 37 39" fill="none" xmlns="http://www.w3.org/2000/svg">
<g filter="url(#filter0_ddii_1_38)">
<rect x="1.48804" y="1.48792" width="34" height="34" rx="17" fill="url(#paint0_linear_1_38)"/>
<g clip-path="url(#clip0_1_38)">
<mask id="mask0_1_38" style="mask-type:luminance" maskUnits="userSpaceOnUse" x="11" y="10" width="17" height="17">
<path d="M27.488 10.4879H11.488V26.4879H27.488V10.4879Z" fill="white"/>
</mask>
<g mask="url(#mask0_1_38)">
<path d="M15.0946 24.9874C14.3479 24.9874 13.8746 24.7341 13.5746 24.4341C12.9879 23.8474 12.5746 22.6007 13.8946 19.9541L14.4746 18.8007C14.5479 18.6474 14.5479 18.3274 14.4746 18.1741L13.8946 17.0207C12.5679 14.374 12.9879 13.1207 13.5746 12.5407C14.1546 11.954 15.4079 11.534 18.0479 12.8607L23.7546 15.714C25.1746 16.4207 25.9546 17.4074 25.9546 18.4874C25.9546 19.5674 25.1746 20.5541 23.7612 21.2607L18.0546 24.1141C16.7613 24.7607 15.8013 24.9874 15.0946 24.9874ZM15.0946 12.9874C14.7346 12.9874 14.4546 13.074 14.2813 13.2474C13.7946 13.7274 13.9879 14.974 14.7879 16.5674L15.3679 17.7274C15.5813 18.1607 15.5813 18.8141 15.3679 19.2474L14.7879 20.4007C13.9879 22.0007 13.7946 23.2407 14.2813 23.7207C14.7613 24.2074 16.0079 24.0141 17.6079 23.2141L23.3146 20.3607C24.3612 19.8407 24.9546 19.1541 24.9546 18.4807C24.9546 17.8074 24.3546 17.1207 23.3079 16.6007L17.6013 13.754C16.5879 13.2474 15.7146 12.9874 15.0946 12.9874Z" fill="white"/>
<path d="M18.7147 18.9879H15.1147C14.8414 18.9879 14.6147 18.7612 14.6147 18.4879C14.6147 18.2146 14.8414 17.9879 15.1147 17.9879H18.7147C18.9881 17.9879 19.2147 18.2146 19.2147 18.4879C19.2147 18.7612 18.9881 18.9879 18.7147 18.9879Z" fill="white"/>
</g>
</g>
</g>
<defs>
<filter id="filter0_ddii_1_38" x="0.000119805" y="-2.26498e-06" width="36.9758" height="38.0351" filterUnits="userSpaceOnUse" color-interpolation-filters="sRGB">
<feFlood flood-opacity="0" result="BackgroundImageFix"/>
<feColorMatrix in="SourceAlpha" type="matrix" values="0 0 0 0 0 0 0 0 0 0 0 0 0 0 0 0 0 0 127 0" result="hardAlpha"/>
<feMorphology radius="1.48792" operator="dilate" in="SourceAlpha" result="effect1_dropShadow_1_38"/>
<feOffset/>
<feComposite in2="hardAlpha" operator="out"/>
<feColorMatrix type="matrix" values="0 0 0 0 1 0 0 0 0 1 0 0 0 0 1 0 0 0 1 0"/>
<feBlend mode="normal" in2="BackgroundImageFix" result="effect1_dropShadow_1_38"/>
<feColorMatrix in="SourceAlpha" type="matrix" values="0 0 0 0 0 0 0 0 0 0 0 0 0 0 0 0 0 0 127 0" result="hardAlpha"/>
<feOffset dy="1.10511"/>
<feGaussianBlur stdDeviation="0.721017"/>
<feColorMatrix type="matrix" values="0 0 0 0 0 0 0 0 0 0.898039 0 0 0 0 0.552941 0 0 0 0.153301 0"/>
<feBlend mode="normal" in2="effect1_dropShadow_1_38" result="effect2_dropShadow_1_38"/>
<feBlend mode="normal" in="SourceGraphic" in2="effect2_dropShadow_1_38" result="shape"/>
<feColorMatrix in="SourceAlpha" type="matrix" values="0 0 0 0 0 0 0 0 0 0 0 0 0 0 0 0 0 0 127 0" result="hardAlpha"/>
<feMorphology radius="0.595167" operator="erode" in="SourceAlpha" result="effect3_innerShadow_1_38"/>
<feOffset dy="0.297583"/>
<feGaussianBlur stdDeviation="0.595167"/>
<feComposite in2="hardAlpha" operator="arithmetic" k2="-1" k3="1"/>
<feColorMatrix type="matrix" values="0 0 0 0 0.851863 0 0 0 0 1 0 0 0 0 0.943024 0 0 0 1 0"/>
<feBlend mode="normal" in2="shape" result="effect3_innerShadow_1_38"/>
<feColorMatrix in="SourceAlpha" type="matrix" values="0 0 0 0 0 0 0 0 0 0 0 0 0 0 0 0 0 0 127 0" result="hardAlpha"/>
<feMorphology radius="0.595167" operator="erode" in="SourceAlpha" result="effect4_innerShadow_1_38"/>
<feOffset dy="0.297583"/>
<feGaussianBlur stdDeviation="2.67825"/>
<feComposite in2="hardAlpha" operator="arithmetic" k2="-1" k3="1"/>
<feColorMatrix type="matrix" values="0 0 0 0 0.85098 0 0 0 0 1 0 0 0 0 0.941176 0 0 0 1 0"/>
<feBlend mode="normal" in2="effect3_innerShadow_1_38" result="effect4_innerShadow_1_38"/>
</filter>
<linearGradient id="paint0_linear_1_38" x1="18.488" y1="1.48792" x2="18.488" y2="35.4879" gradientUnits="userSpaceOnUse">
<stop stop-color="#00E58D"/>
<stop offset="1" stop-color="#00C278"/>
</linearGradient>
<clipPath id="clip0_1_38">
<rect width="16" height="16" fill="white" transform="translate(11.488 10.4879)"/>
</clipPath>
</defs>
</svg>
